<svg viewBox="0 0 300 120" xmlns="http://www.w3.org/2000/svg">
  <defs>
    <linearGradient id="oilGradient" x1="0%" y1="0%" x2="100%" y2="100%">
      <stop offset="0%" style="stop-color:#1a4480;stop-opacity:1" />
      <stop offset="100%" style="stop-color:#2563eb;stop-opacity:1" />
    </linearGradient>
    <linearGradient id="digitalGradient" x1="0%" y1="0%" x2="100%" y2="0%">
      <stop offset="0%" style="stop-color:#059669;stop-opacity:1" />
      <stop offset="100%" style="stop-color:#10b981;stop-opacity:1" />
    </linearGradient>
  </defs>
  <circle cx="60" cy="60" r="45" fill="url(#oilGradient)" stroke="#ffffff" stroke-width="2"/>
  <g transform="translate(60,60)">
    <polygon points="-8,-35 8,-35 6,25 -6,25" fill="#ffffff" opacity="0.9"/>
    <line x1="-6" y1="-25" x2="6" y2="-15" stroke="#ffffff" stroke-width="1.5" opacity="0.7"/>
    <line x1="6" y1="-25" x2="-6" y2="-15" stroke="#ffffff" stroke-width="1.5" opacity="0.7"/>
    <line x1="-6" y1="-5" x2="6" y2="5" stroke="#ffffff" stroke-width="1.5" opacity="0.7"/>
    <line x1="6" y1="-5" x2="-6" y2="5" stroke="#ffffff" stroke-width="1.5" opacity="0.7"/>
    <rect x="-10" y="-38" width="20" height="6" fill="#ffffff" rx="1"/>
    <rect x="-12" y="25" width="24" height="8" fill="#ffffff" rx="2"/>
  </g>
  <rect x="100" y="35" width="18" height="28" fill="url(#digitalGradient)" rx="3" stroke="#ffffff" stroke-width="1"/>
  <rect x="102" y="38" width="14" height="18" fill="#ffffff" rx="1"/>
  <rect x="104" y="50" width="2" height="4" fill="url(#digitalGradient)"/>
  <rect x="107" y="48" width="2" height="6" fill="url(#digitalGradient)"/>
  <rect x="110" y="46" width="2" height="8" fill="url(#digitalGradient)"/>
  <rect x="113" y="49" width="2" height="5" fill="url(#digitalGradient)"/>
  <path d="M 78 50 Q 85 45 95 50" stroke="url(#digitalGradient)" stroke-width="2" fill="none" opacity="0.8"/>
  <path d="M 82 60 Q 89 55 99 60" stroke="url(#digitalGradient)" stroke-width="2" fill="none" opacity="0.8"/>
  <path d="M 78 70 Q 85 75 95 70" stroke="url(#digitalGradient)" stroke-width="2" fill="none" opacity="0.8"/>
  <text x="140" y="45" font-family="Arial, sans-serif" font-size="18" font-weight="bold" fill="#1a4480">PumpLogix</text>
  <text x="140" y="62" font-family="Arial, sans-serif" font-size="14" font-weight="normal" fill="#4b5563">Digital Solutions</text>
  <text x="140" y="78" font-family="Arial, sans-serif" font-size="8" font-weight="normal" fill="#6b7280">Oil Well Testing and Data Management</text>
  <circle cx="25" cy="25" r="2" fill="url(#digitalGradient)" opacity="0.6"/>
  <circle cx="280" cy="95" r="1.5" fill="url(#oilGradient)" opacity="0.4"/>
  <circle cx="275" cy="30" r="1" fill="url(#digitalGradient)" opacity="0.5"/>
</svg>
